<?xml version="1.0" encoding="utf-8"?><!-- Uploaded to: SVG Repo, www.svgrepo.com, Generator: SVG Repo Mixer Tools -->
<svg fill="#000000" width="28px" height="28px" viewBox="0 0 28 28" id="more-circle-vertical" xmlns="http://www.w3.org/2000/svg" class="icon multi-color"><ellipse id="secondary-fill" cx="12" cy="14" rx="8.5" ry="10" style="fill: rgb(250, 180, 75); stroke-width: 2;"></ellipse><circle id="primary-stroke" cx="14" cy="14" r="12" style="fill: none; stroke: rgb(0, 0, 0); stroke-linecap: round; stroke-linejoin: round; stroke-width: 2;"></circle><path id="secondary-upstroke" d="M12,8Zm0,4Zm0,4Z" style="fill: none; stroke: rgb(44, 169, 188); stroke-linecap: round; stroke-linejoin: round; stroke-width: 2.5;"></path><path d="M12,16a2,2,0,1,1-2,2A2,2,0,0,1,12,16ZM10,6a2,2,0,1,0,2-2A2,2,0,0,0,10,6Zm0,6a2,2,0,1,0,2-2A2,2,0,0,0,10,12Z" id="Vertical"/></svg>
